<svg width="600" height="244" viewBox="0 0 600 244" fill="none" xmlns="http://www.w3.org/2000/svg">
<mask id="mask0" mask-type="alpha" maskUnits="userSpaceOnUse" x="0" y="0" width="600" height="214">
<path d="M4 0H596C598.209 0 600 1.79086 600 4V213.333H0V4C0 1.79086 1.79086 0 4 0Z" fill="white"/>
</mask>
<g mask="url(#mask0)">
<path fill-rule="evenodd" clip-rule="evenodd" d="M0.666656 212.667H599.333V3.99996C599.333 2.15901 597.841 0.666626 596 0.666626H3.99999C2.15904 0.666626 0.666656 2.15901 0.666656 3.99996V212.667Z" stroke="#979797"/>
<path d="M600 0H0V213.333H600V0Z" fill="#00C7E6"/>
<path fill-rule="evenodd" clip-rule="evenodd" d="M642.442 83.0247C542.545 22.8695 452.437 30.3159 372.118 105.364C314.67 72.6581 260.481 71.052 209.553 100.546C119.45 142.304 49.0972 152.232 -1.50446 130.331C-1.50446 198.668 -1.50446 232.837 -1.50446 232.837C402.657 232.837 604.738 232.837 604.738 232.837L642.442 83.0247Z" fill="url(#paint0_linear)"/>
<path fill-rule="evenodd" clip-rule="evenodd" d="M-47.6056 144C54.6211 75.3333 146.83 83.8333 229.021 169.5C287.809 132.167 343.261 130.333 395.377 164C487.581 211.667 559.574 223 611.355 198C611.355 276.006 611.355 315.01 611.355 315.01C197.771 315.01 -9.02181 315.01 -9.02181 315.01L-47.6056 144Z" fill="url(#paint1_linear)"/>
</g>
<defs>
<linearGradient id="paint0_linear" x1="269.702" y1="-108.176" x2="269.702" y2="177.24" gradientUnits="userSpaceOnUse">
<stop stop-color="white"/>
<stop offset="1" stop-color="white" stop-opacity="0"/>
</linearGradient>
<linearGradient id="paint1_linear" x1="333.826" y1="-74.254" x2="333.826" y2="251.546" gradientUnits="userSpaceOnUse">
<stop stop-color="white"/>
<stop offset="1" stop-color="white" stop-opacity="0"/>
</linearGradient>
</defs>
</svg>
