<svg width="18" height="18" viewBox="0 0 18 18" fill="none" xmlns="http://www.w3.org/2000/svg">
<path fill-rule="evenodd" clip-rule="evenodd" d="M1.97749 8C1.71536 8.00316 1.46521 8.11027 1.28201 8.29778C1.09881 8.48529 0.997555 8.73787 1.00049 9C1.00049 9.551 1.43749 10 1.97749 10H13.0235C13.2855 9.99657 13.5355 9.88938 13.7187 9.70193C13.9018 9.51448 14.0032 9.26205 14.0005 9C14.0032 8.73795 13.9018 8.48552 13.7187 8.29807C13.5355 8.11062 13.2855 8.00343 13.0235 8H1.97749Z" fill="#42526E"/>
<path fill-rule="evenodd" clip-rule="evenodd" d="M3.23149 5.306L0.30149 8.262C0.108248 8.45904 0 8.72402 0 9C0 9.27598 0.108248 9.54096 0.30149 9.738L3.23149 12.695C3.32757 12.7916 3.44179 12.8682 3.56758 12.9205C3.69338 12.9728 3.82826 12.9997 3.96449 12.9997C4.10072 12.9997 4.2356 12.9728 4.36139 12.9205C4.48719 12.8682 4.60141 12.7916 4.69749 12.695C4.89229 12.4984 5.00158 12.2328 5.00158 11.956C5.00158 11.6792 4.89229 11.4136 4.69749 11.217L2.50049 9.001L4.69749 6.783C4.89199 6.58642 5.00109 6.32104 5.00109 6.0445C5.00109 5.76796 4.89199 5.50258 4.69749 5.306C4.60147 5.20931 4.48728 5.13257 4.36147 5.0802C4.23567 5.02783 4.10076 5.00087 3.96449 5.00087C3.82822 5.00087 3.69331 5.02783 3.5675 5.0802C3.4417 5.13257 3.32751 5.20931 3.23149 5.306ZM9.00049 2.51406e-07V2H16.0005V16H9.00049V18H16.0065C17.1065 18 18.0005 17.107 18.0005 16.005V1.995C18.0008 1.73302 17.9494 1.47357 17.8493 1.23147C17.7492 0.989369 17.6023 0.769382 17.4171 0.58409C17.2319 0.398797 17.012 0.251836 16.7699 0.151612C16.5279 0.0513882 16.2685 -0.000131329 16.0065 2.51406e-07H9.00049Z" fill="#42526E"/>
</svg>
